<?xml version="1.0" standalone="no"?>
<!DOCTYPE svg PUBLIC "-//W3C//DTD SVG 20010904//EN"
 "http://www.w3.org/TR/2001/REC-SVG-20010904/DTD/svg10.dtd">
<svg version="1.0" xmlns="http://www.w3.org/2000/svg"
 width="696.000000pt" height="696.000000pt" viewBox="0 0 696.000000 696.000000"
 preserveAspectRatio="xMidYMid meet">

<g transform="translate(0.000000,696.000000) scale(0.100000,-0.100000)"
fill="#000000" stroke="none">
<path d="M1691 6949 c-438 -33 -843 -222 -1153 -535 -261 -264 -420 -564 -500
-940 l-23 -109 -3 -1048 c-3 -1095 -3 -1082 38 -1082 9 0 14 -7 12 -18 -2 -12
4 -17 23 -17 26 0 34 -15 13 -23 -7 -3 1 -8 19 -12 25 -6 31 -12 29 -29 -1
-12 -5 -27 -9 -33 -3 -5 -4 -13 0 -17 13 -13 23 -5 23 20 0 22 2 25 15 14 8
-7 15 -19 15 -26 0 -8 9 -14 20 -14 11 0 20 -4 20 -10 0 -5 -6 -10 -12 -10 -9
0 -9 -3 1 -9 12 -8 12 -12 2 -24 -8 -10 -9 -17 -1 -22 15 -9 30 3 23 20 -3 9
1 15 11 15 9 0 16 -8 16 -20 0 -13 7 -20 20 -20 11 0 20 -5 20 -11 0 -7 -10
-9 -26 -5 -19 5 -25 3 -22 -6 3 -7 11 -13 19 -14 8 0 29 -2 47 -2 38 -2 34
-22 -4 -22 -13 0 -24 -4 -24 -10 0 -5 8 -9 17 -8 43 3 73 -3 73 -16 0 -9 -8
-12 -25 -8 -14 2 -25 0 -25 -7 0 -6 8 -10 17 -9 48 4 71 -2 69 -19 0 -12 7
-19 22 -21 17 -3 21 -8 17 -23 -5 -14 -2 -19 14 -19 11 0 25 -9 31 -20 6 -11
18 -20 26 -20 11 0 13 -6 9 -20 -5 -16 -2 -20 19 -20 16 0 26 -6 26 -15 0 -8
9 -19 20 -25 11 -6 18 -15 15 -20 -3 -5 6 -12 21 -16 24 -6 26 -10 20 -42 -5
-32 -4 -33 9 -16 13 17 15 13 17 -41 5 -148 15 734 17 1460 1 646 4 819 16
897 79 523 395 958 870 1196 158 79 356 136 520 150 44 4 694 7 1445 7 1475 0
1405 2 1625 -55 181 -48 356 -132 525 -253 91 -66 300 -284 364 -380 127 -192
216 -408 253 -617 17 -99 18 -190 18 -1520 0 -1340 -1 -1420 -19 -1515 -64
-342 -230 -642 -491 -886 -196 -183 -461 -320 -726 -377 -172 -38 -302 -42
-1424 -44 -600 -1 -1064 -3 -1032 -5 48 -3 58 -7 53 -19 -4 -10 1 -18 14 -21
11 -3 20 -14 20 -24 0 -14 7 -19 26 -19 22 0 25 -2 14 -15 -10 -13 -8 -16 17
-21 22 -4 28 -11 28 -30 -1 -13 -4 -27 -8 -30 -8 -8 3 -34 14 -34 5 0 9 11 9
25 0 16 6 25 15 25 9 0 15 -6 14 -13 -3 -28 2 -35 22 -30 16 5 20 2 17 -13 -2
-13 4 -20 20 -22 15 -2 22 -9 20 -20 -2 -11 5 -18 20 -20 32 -5 27 -20 -8 -24
-24 -2 -27 -6 -19 -18 6 -9 12 -11 15 -5 2 6 22 9 44 7 45 -5 45 -22 0 -22
-22 0 -28 -4 -24 -15 4 -10 10 -12 18 -6 14 11 76 2 76 -11 0 -6 -11 -8 -25
-5 -16 3 -24 0 -22 -7 2 -6 12 -11 23 -12 76 -4 79 -4 64 -14 -8 -5 -26 -10
-39 -10 -26 0 -20 -14 7 -16 10 -1 30 -2 45 -3 17 0 26 -5 22 -11 -4 -6 -14
-10 -23 -9 -30 3 -35 -1 -22 -16 9 -11 16 -12 20 -5 4 6 20 8 38 4 26 -5 31
-10 27 -25 -5 -15 -1 -19 22 -20 15 0 22 -3 16 -6 -22 -8 -14 -20 18 -27 18
-3 28 -10 24 -16 -4 -6 -14 -8 -23 -6 -10 3 -24 1 -32 -4 -10 -6 352 -10 1015
-10 831 0 1051 3 1136 15 443 58 835 266 1131 600 209 235 352 521 425 849
l27 121 4 1820 c4 1929 3 1942 -43 2134 -112 457 -378 841 -760 1096 -273 182
-558 281 -880 305 -166 12 -3413 12 -3574 -1z"/>
<path d="M2146 5837 c-386 -43 -730 -286 -908 -642 -44 -88 -74 -175 -101
-290 -20 -87 -21 -117 -22 -920 0 -754 7 -1903 13 -1847 3 27 22 30 22 2 0
-11 7 -20 15 -20 8 0 15 -4 15 -10 0 -5 -6 -10 -12 -10 -23 0 16 -20 40 -20
12 0 22 -5 22 -11 0 -7 -10 -9 -25 -5 -18 5 -25 2 -25 -9 0 -8 8 -14 18 -13 9
1 33 0 52 -1 31 -1 33 -3 18 -15 -21 -16 -13 -26 19 -26 17 0 23 -5 21 -17 -2
-12 4 -19 20 -21 12 -2 22 -8 22 -14 0 -6 -11 -8 -25 -6 -14 3 -28 1 -31 -3
-3 -5 1 -9 8 -10 7 -1 20 -2 28 -3 8 -2 25 -3 38 -4 19 -2 22 -6 17 -22 -5
-16 -2 -20 15 -20 13 0 24 -8 27 -20 3 -11 13 -20 23 -20 13 0 17 -6 13 -20
-4 -16 0 -20 20 -20 25 0 45 -34 26 -46 -12 -7 -11 -34 1 -34 6 0 10 9 10 20
0 11 7 20 16 20 11 0 14 -6 9 -21 -6 -19 -4 -21 19 -17 18 4 26 1 26 -8 0 -8
-4 -14 -9 -14 -10 0 -2 -48 10 -55 4 -3 10 -1 14 5 3 5 1 10 -5 10 -6 0 -8 5
-5 10 3 5 13 10 21 10 11 0 13 -6 9 -20 -5 -17 -2 -20 21 -20 26 0 26 -2 20
-41 -5 -31 -3 -40 6 -36 7 2 12 11 10 21 -2 9 4 16 13 16 18 0 21 -40 4 -57
-8 -8 -8 -13 0 -17 16 -11 31 2 24 21 -4 11 -2 14 8 11 8 -2 15 -14 17 -25 2
-15 9 -19 22 -16 15 4 18 1 13 -16 -4 -17 -1 -21 20 -21 20 0 24 -4 20 -20 -4
-16 0 -20 20 -20 21 0 25 -4 24 -27 -1 -16 -6 -31 -10 -34 -5 -4 -4 -10 3 -14
7 -4 13 1 17 14 3 12 11 21 18 21 8 0 11 -8 8 -20 -4 -16 0 -20 21 -20 20 0
26 -4 24 -17 -2 -12 4 -19 20 -21 12 -2 22 -8 22 -14 0 -5 -6 -8 -14 -5 -8 3
-20 0 -26 -8 -9 -11 -6 -14 17 -13 56 1 65 -2 59 -17 -4 -11 3 -19 22 -27 15
-6 22 -12 15 -15 -24 -9 -13 -23 18 -23 26 0 31 -3 26 -20 -4 -16 0 -20 19
-20 21 0 24 -4 22 -31 -2 -19 2 -34 10 -36 8 -3 10 1 5 13 -4 12 -2 15 8 12 8
-3 14 -13 14 -24 0 -14 6 -18 23 -16 12 2 22 -2 22 -7 0 -6 -4 -11 -10 -11
-14 0 -1 -27 16 -34 9 -3 12 -1 9 4 -3 6 1 10 10 10 9 0 13 -5 10 -10 -5 -7
414 -10 1332 -7 1322 3 1339 3 1423 24 465 115 795 452 896 913 18 81 19 156
19 1475 0 1552 4 1451 -70 1651 -148 393 -496 681 -900 743 -83 13 -2709 21
-2819 8z m3071 -630 c194 -123 155 -419 -63 -483 -264 -76 -458 249 -265 443
59 58 105 75 201 71 71 -4 92 -9 127 -31z m-1394 -488 c600 -121 1052 -578
1174 -1184 27 -135 24 -415 -5 -552 -64 -298 -191 -532 -407 -749 -312 -314
-703 -462 -1145 -433 -578 37 -1094 429 -1288 980 -61 173 -77 273 -77 489 0
218 11 290 71 470 72 214 193 409 360 576 198 198 459 340 729 398 107 23 108
23 303 25 150 1 203 -3 285 -20z"/>
<path d="M3465 4333 c-473 -51 -828 -343 -951 -784 -35 -127 -44 -342 -20
-472 82 -432 404 -760 839 -853 87 -18 305 -21 395 -4 399 72 724 365 836 753
110 378 1 789 -281 1064 -146 142 -360 250 -558 282 -77 12 -213 20 -260 14z"/>
<path d="M11 3228 c-1 -19 4 -28 14 -28 8 0 15 5 15 10 0 6 -4 10 -9 10 -5 0
-12 8 -14 18 -3 10 -5 6 -6 -10z"/>
<path d="M57 3184 c-8 -8 1 -24 14 -24 5 0 9 7 9 15 0 15 -12 20 -23 9z"/>
<path d="M96 3141 c-3 -5 1 -11 9 -15 9 -3 15 0 15 9 0 16 -16 20 -24 6z"/>
<path d="M176 3061 c-3 -5 1 -11 9 -15 9 -3 15 0 15 9 0 16 -16 20 -24 6z"/>
<path d="M381 2861 c-10 -6 -10 -10 -1 -16 13 -8 24 -1 19 14 -3 6 -10 7 -18
2z"/>
<path d="M420 2810 c0 -5 7 -10 15 -10 8 0 15 5 15 10 0 6 -7 10 -15 10 -8 0
-15 -4 -15 -10z"/>
<path d="M500 2741 c0 -6 5 -13 10 -16 6 -3 10 1 10 9 0 9 -4 16 -10 16 -5 0
-10 -4 -10 -9z"/>
<path d="M580 2661 c0 -5 5 -13 10 -16 6 -3 10 -2 10 4 0 5 -4 13 -10 16 -5 3
-10 2 -10 -4z"/>
<path d="M624 2619 c-3 -6 -1 -16 5 -22 8 -8 11 -5 11 11 0 24 -5 28 -16 11z"/>
<path d="M1123 2085 c0 -11 4 -12 14 -4 7 6 13 13 13 15 0 2 -6 4 -13 4 -8 0
-14 -7 -14 -15z"/>
<path d="M1220 2005 c0 -8 5 -15 10 -15 6 0 10 7 10 15 0 8 -4 15 -10 15 -5 0
-10 -7 -10 -15z"/>
<path d="M1265 1979 c-10 -15 3 -25 16 -12 7 7 7 13 1 17 -6 3 -14 1 -17 -5z"/>
<path d="M1341 1901 c-10 -6 -10 -10 -1 -16 13 -8 24 -1 19 14 -3 6 -10 7 -18
2z"/>
<path d="M1380 1860 c0 -5 10 -10 23 -10 18 0 19 2 7 10 -19 13 -30 13 -30 0z"/>
<path d="M1420 1820 c0 -13 18 -22 24 -11 3 5 -1 11 -9 15 -8 3 -15 1 -15 -4z"/>
<path d="M1535 1690 c3 -5 10 -10 16 -10 5 0 9 5 9 10 0 6 -7 10 -16 10 -8 0
-12 -4 -9 -10z"/>
<path d="M1615 1621 c-7 -12 12 -24 25 -16 11 7 4 25 -10 25 -5 0 -11 -4 -15
-9z"/>
<path d="M1735 1490 c3 -5 8 -10 11 -10 2 0 4 5 4 10 0 6 -5 10 -11 10 -5 0
-7 -4 -4 -10z"/>
<path d="M1776 1461 c-3 -5 1 -11 9 -15 15 -6 29 7 18 18 -9 9 -21 8 -27 -3z"/>
<path d="M1820 1420 c0 -5 5 -10 10 -10 6 0 10 5 10 10 0 6 -4 10 -10 10 -5 0
-10 -4 -10 -10z"/>
<path d="M1900 1335 c0 -8 5 -15 10 -15 6 0 10 7 10 15 0 8 -4 15 -10 15 -5 0
-10 -7 -10 -15z"/>
<path d="M1976 1262 c-3 -6 -1 -14 5 -17 15 -10 25 3 12 16 -7 7 -13 7 -17 1z"/>
<path d="M2022 1221 c-11 -7 -11 -9 2 -14 10 -4 16 -1 16 8 0 17 -1 17 -18 6z"/>
<path d="M2055 1180 c-3 -5 -1 -10 4 -10 6 0 11 5 11 10 0 6 -2 10 -4 10 -3 0
-8 -4 -11 -10z"/>
<path d="M2101 1141 c-10 -7 -10 -10 -1 -16 6 -4 16 -3 22 3 13 13 -4 23 -21
13z"/>
<path d="M2170 1062 c0 -5 6 -15 14 -21 12 -10 14 -9 12 5 -3 19 -26 33 -26
16z"/>
<path d="M2697 544 c-8 -8 1 -24 14 -24 5 0 9 7 9 15 0 15 -12 20 -23 9z"/>
<path d="M2777 466 c-3 -8 1 -17 8 -20 20 -7 28 9 11 23 -10 9 -15 8 -19 -3z"/>
<path d="M2860 370 c0 -5 5 -10 10 -10 6 0 10 5 10 10 0 6 -4 10 -10 10 -5 0
-10 -4 -10 -10z"/>
<path d="M2896 341 c-4 -5 -2 -12 3 -15 5 -4 12 -2 15 3 4 5 2 12 -3 15 -5 4
-12 2 -15 -3z"/>
<path d="M3130 90 c0 -5 7 -10 15 -10 8 0 15 5 15 10 0 6 -7 10 -15 10 -8 0
-15 -4 -15 -10z"/>
<path d="M3180 56 c0 -8 5 -18 10 -21 6 -3 10 3 10 14 0 12 -4 21 -10 21 -5 0
-10 -6 -10 -14z"/>
</g>
</svg>
